{
  "source": "C:\\Users\\Peter\\Desktop\\stuff\\MIUN\\quantitative_research\\video_compression\\videos\\BVI-HD\\BVI-HD_CDVL_videos\\ORIG\\RockWave_1920x1080_30fps.mp4",
  "output": "C:\\Users\\Peter\\Desktop\\stuff\\MIUN\\quantitative_research\\video_compression\\compressed_videos\\BVI-HD\\h264\\4\\RockWave_1920x1080_30fps_h264.mp4",
  "codec": "h264",
  "ok": "Input #0, mov,mp4,m4a,3gp,3g2,mj2, from 'C:\\Users\\Peter\\Desktop\\stuff\\MIUN\\quantitative_research\\video_compression\\videos\\BVI-HD\\BVI-HD_CDVL_videos\\ORIG\\RockWave_1920x1080_30fps.mp4':\n  Metadata:\n    major_brand     : isom\n    minor_version   : 512\n    compatible_brands: isomiso2avc1mp41\n    encoder         : Lavf54.28.101\n  Duration: 00:00:05.00, start: 0.000000, bitrate: 303557 kb/s\n  Stream #0:0[0x1](und): Video: h264 (High 4:4:4 Predictive) (avc1 / 0x31637661), yuv420p(progressive), 1920x1080, 303553 kb/s, 30 fps, 30 tbr, 30 tbn (default)\n    Metadata:\n      handler_name    : VideoHandler\n      vendor_id       : [0][0][0][0]\n[out#0/mp4 @ 000002297fcd9a40] Codec AVOption b:a (set bitrate (in bits/s)) has not been used for any stream. The most likely reason is either wrong type (e.g. a video option with no video streams) or that it is a private option of some decoder which was not actually used for any stream.\nStream mapping:\n  Stream #0:0 -> #0:0 (h264 (native) -> h264 (libx264))\nPress [q] to stop, [?] for help\n[libx264 @ 0000022901d20a40] using cpu capabilities: MMX2 SSE2Fast SSSE3 SSE4.2 AVX FMA3 BMI2 AVX2\n[libx264 @ 0000022901d20a40] profile High, level 5.0, 4:2:0, 8-bit\n[libx264 @ 0000022901d20a40] 264 - core 165 r3222 b35605a - H.264/MPEG-4 AVC codec - Copyleft 2003-2025 - http://www.videolan.org/x264.html - options: cabac=1 ref=5 deblock=1:0:0 analyse=0x3:0x113 me=hex subme=8 psy=1 psy_rd=1.00:0.00 mixed_ref=1 me_range=16 chroma_me=1 trellis=2 8x8dct=1 cqm=0 deadzone=21,11 fast_pskip=1 chroma_qp_offset=-2 threads=18 lookahead_threads=3 sliced_threads=0 nr=0 decimate=1 interlaced=0 bluray_compat=0 constrained_intra=0 bframes=3 b_pyramid=2 b_adapt=1 b_bias=0 direct=3 weightb=1 open_gop=0 weightp=2 keyint=250 keyint_min=25 scenecut=40 intra_refresh=0 rc_lookahead=50 rc=cbr mbtree=1 bitrate=4000 ratetol=1.0 qcomp=0.60 qpmin=0 qpmax=69 qpstep=4 vbv_maxrate=4000 vbv_bufsize=4000 nal_hrd=none filler=0 ip_ratio=1.40 aq=1:1.00\nOutput #0, mp4, to 'C:\\Users\\Peter\\Desktop\\stuff\\MIUN\\quantitative_research\\video_compression\\compressed_videos\\BVI-HD\\h264\\4\\RockWave_1920x1080_30fps_h264.mp4':\n  Metadata:\n    major_brand     : isom\n    minor_version   : 512\n    compatible_brands: isomiso2avc1mp41\n    encoder         : Lavf62.3.100\n  Stream #0:0(und): Video: h264 (avc1 / 0x31637661), yuv420p(tv, progressive), 1920x1080, q=2-31, 4000 kb/s, 30 fps, 15360 tbn (default)\n    Metadata:\n      encoder         : Lavc62.11.100 libx264\n      handler_name    : VideoHandler\n      vendor_id       : [0][0][0][0]\n    Side data:\n      cpb: bitrate max/min/avg: 4000000/0/4000000 buffer size: 4000000 vbv_delay: N/A\nframe=    0 fps=0.0 q=0.0 size=       0KiB time=N/A bitrate=N/A speed=N/A elapsed=0:00:01.10    \nframe=    0 fps=0.0 q=0.0 size=       0KiB time=N/A bitrate=N/A speed=N/A elapsed=0:00:01.95    \nframe=    0 fps=0.0 q=0.0 size=       0KiB time=N/A bitrate=N/A speed=N/A elapsed=0:00:02.77    \nframe=    5 fps=1.4 q=43.0 size=       0KiB time=-00:00:00.03 bitrate=N/A speed=N/A elapsed=0:00:03.66    \nframe=   21 fps=4.9 q=43.0 size=     256KiB time=00:00:00.50 bitrate=4195.1kbits/s speed=0.116x elapsed=0:00:04.31    \nframe=   39 fps=7.7 q=42.0 size=     512KiB time=00:00:01.00 bitrate=4194.7kbits/s speed=0.198x elapsed=0:00:05.05    \nframe=   49 fps=8.4 q=43.0 size=     512KiB time=00:00:01.43 bitrate=2926.5kbits/s speed=0.246x elapsed=0:00:05.82    \nframe=   65 fps= 10 q=43.0 size=     768KiB time=00:00:01.96 bitrate=3199.2kbits/s speed=0.301x elapsed=0:00:06.52    \nframe=   77 fps= 11 q=43.0 size=    1024KiB time=00:00:02.50 bitrate=3355.6kbits/s speed=0.346x elapsed=0:00:07.22    \nframe=   94 fps= 12 q=42.0 size=    1280KiB time=00:00:02.93 bitrate=3574.8kbits/s speed=0.376x elapsed=0:00:07.79    \nframe=  109 fps= 13 q=41.0 size=    1536KiB time=00:00:03.30 bitrate=3813.1kbits/s speed=0.394x elapsed=0:00:08.37    \nframe=  126 fps= 14 q=41.0 size=    1792KiB time=00:00:04.00 bitrate=3670.1kbits/s speed=0.443x elapsed=0:00:09.02    \nframe=  150 fps= 16 q=-1.0 size=    2304KiB time=00:00:04.90 bitrate=3852.0kbits/s speed=0.509x elapsed=0:00:09.63    \n[mp4 @ 000002297fce1400] Starting second pass: moving the moov atom to the beginning of the file\n[out#0/mp4 @ 000002297fcd9a40] video:2321KiB audio:0KiB subtitle:0KiB other streams:0KiB global headers:0KiB muxing overhead: 0.112560%\nframe=  150 fps= 15 q=-1.0 Lsize=    2323KiB time=00:00:04.93 bitrate=3858.1kbits/s speed=0.51x elapsed=0:00:09.67    \n[libx264 @ 0000022901d20a40] frame I:2     Avg QP:38.87  size: 59574\n[libx264 @ 0000022901d20a40] frame P:38    Avg QP:42.79  size: 26007\n[libx264 @ 0000022901d20a40] frame B:110   Avg QP:44.92  size: 11530\n[libx264 @ 0000022901d20a40] consecutive B-frames:  2.0%  0.0%  2.0% 96.0%\n[libx264 @ 0000022901d20a40] mb I  I16..4: 23.7% 69.0%  7.3%\n[libx264 @ 0000022901d20a40] mb P  I16..4:  4.2%  9.3%  0.3%  P16..4: 38.7%  7.3%  4.9%  0.0%  0.0%    skip:35.3%\n[libx264 @ 0000022901d20a40] mb B  I16..4:  0.1%  0.5%  0.0%  B16..8: 36.0%  3.8%  0.6%  direct: 4.0%  skip:55.0%  L0:44.3% L1:52.5% BI: 3.2%\n[libx264 @ 0000022901d20a40] 8x8 transform intra:69.4% inter:71.9%\n[libx264 @ 0000022901d20a40] direct mvs  spatial:90.9% temporal:9.1%\n[libx264 @ 0000022901d20a40] coded y,uvDC,uvAC intra: 46.8% 11.5% 0.0% inter: 13.0% 0.7% 0.0%\n[libx264 @ 0000022901d20a40] i16 v,h,dc,p: 31% 28% 17% 24%\n[libx264 @ 0000022901d20a40] i8 v,h,dc,ddl,ddr,vr,hd,vl,hu:  5%  4% 14% 12% 15% 10% 16% 10% 14%\n[libx264 @ 0000022901d20a40] i4 v,h,dc,ddl,ddr,vr,hd,vl,hu:  4%  5%  9% 11% 14% 10% 15% 10% 24%\n[libx264 @ 0000022901d20a40] i8c dc,h,v,p: 93%  6%  1%  0%\n[libx264 @ 0000022901d20a40] Weighted P-Frames: Y:7.9% UV:0.0%\n[libx264 @ 0000022901d20a40] ref P L0: 49.2%  8.6% 21.6%  9.9%  9.9%  0.9%\n[libx264 @ 0000022901d20a40] ref B L0: 82.6% 11.2%  4.2%  1.9%\n[libx264 @ 0000022901d20a40] ref B L1: 95.3%  4.7%\n[libx264 @ 0000022901d20a40] kb/s:3801.19\n",
  "seconds": 10.521538972854614,
  "probe_out": {}
}